<svg width="40" height="40" viewBox="0 0 40 40" fill="none" xmlns="http://www.w3.org/2000/svg">
<g filter="url(#filter0_i)">
<circle cx="20" cy="20" r="20" fill="#191C2C"/>
</g>
<path d="M11.6128 19.6455C11.0605 19.6455 10.6128 20.0932 10.6128 20.6455C10.6128 21.1978 11.0605 21.6455 11.6128 21.6455V19.6455ZM29.0941 21.3526C29.4846 20.9621 29.4846 20.3289 29.0941 19.9384L22.7301 13.5744C22.3396 13.1839 21.7064 13.1839 21.3159 13.5744C20.9254 13.965 20.9254 14.5981 21.3159 14.9887L26.9728 20.6455L21.3159 26.3024C20.9254 26.6929 20.9254 27.3261 21.3159 27.7166C21.7064 28.1071 22.3396 28.1071 22.7301 27.7166L29.0941 21.3526ZM11.6128 21.6455H28.387V19.6455H11.6128V21.6455Z" fill="url(#paint0_linear)"/>
<defs>
<filter id="filter0_i" x="0" y="0" width="40" height="44" filterUnits="userSpaceOnUse" color-interpolation-filters="sRGB">
<feFlood flood-opacity="0" result="BackgroundImageFix"/>
<feBlend mode="normal" in="SourceGraphic" in2="BackgroundImageFix" result="shape"/>
<feColorMatrix in="SourceAlpha" type="matrix" values="0 0 0 0 0 0 0 0 0 0 0 0 0 0 0 0 0 0 127 0" result="hardAlpha"/>
<feOffset dy="4"/>
<feGaussianBlur stdDeviation="2"/>
<feComposite in2="hardAlpha" operator="arithmetic" k2="-1" k3="1"/>
<feColorMatrix type="matrix" values="0 0 0 0 0 0 0 0 0 0 0 0 0 0 0 0 0 0 0.25 0"/>
<feBlend mode="normal" in2="shape" result="effect1_innerShadow"/>
</filter>
<linearGradient id="paint0_linear" x1="8.71403" y1="18.3799" x2="14.7783" y2="31.203" gradientUnits="userSpaceOnUse">
<stop stop-color="#B294FC"/>
<stop offset="1" stop-color="#86BDFE"/>
</linearGradient>
</defs>
</svg>
