<svg width="40" height="40" viewBox="0 0 40 40" fill="none" xmlns="http://www.w3.org/2000/svg">
<circle cx="20" cy="20" r="20" transform="rotate(-180 20 20)" fill="white"/>
<path d="M28.5713 21C29.1236 21 29.5713 20.5523 29.5713 20C29.5713 19.4477 29.1236 19 28.5713 19L28.5713 21ZM11.09 19.2929C10.6995 19.6834 10.6995 20.3166 11.09 20.7071L17.454 27.0711C17.8445 27.4616 18.4776 27.4616 18.8682 27.0711C19.2587 26.6805 19.2587 26.0474 18.8682 25.6569L13.2113 20L18.8682 14.3431C19.2587 13.9526 19.2587 13.3195 18.8682 12.9289C18.4776 12.5384 17.8445 12.5384 17.454 12.9289L11.09 19.2929ZM28.5713 19L11.7971 19L11.7971 21L28.5713 21L28.5713 19Z" fill="#191C2C"/>
</svg>
