<svg width="1344" height="593" viewBox="0 0 1344 593" fill="none" xmlns="http://www.w3.org/2000/svg">
<path d="M1317.93 39.6717C1286.36 75.7284 1268.88 120.524 1252.3 164.478C1235.73 208.432 1219.05 253.368 1188.64 290.302C1158.24 327.236 1111.06 355.431 1061.35 352.319C963.958 346.212 900.068 245.717 809.097 219.089C779.816 210.514 745.57 211.614 721.154 228.987C686.995 253.286 683.005 302.68 702.317 338.526C721.629 374.372 758.59 398.881 796.289 418.056C825.245 432.785 855.502 445.268 886.647 455.353C925.897 468.047 968.436 477.944 997.842 505.379C1035.12 540.16 1027.47 567.384 1007.01 592.701H1422V0H1364.8C1347.25 11.0323 1331.35 24.3459 1317.93 39.6717Z" fill="#F5F4FF"/>
<path opacity="0.2" d="M20.3461 567.103L23.1843 568.047L26.0215 568.988L28.8573 569.925L31.6911 570.855L34.5226 571.778L37.3511 572.692L40.1764 573.596L42.9978 574.487L45.815 575.365L48.6274 576.229L51.4346 577.075L54.2362 577.905L57.0317 578.715L59.8206 579.504L62.6026 580.271L65.3772 581.016L68.1439 581.735L70.9024 582.429L73.6523 583.096L76.3931 583.734L79.1245 584.342L81.846 584.92L84.5573 585.465L87.2581 585.978L89.9479 586.456L92.6265 586.898L95.2935 587.304L97.9485 587.673L100.591 588.003L103.221 588.293L105.839 588.544L108.443 588.753L111.034 588.919L113.611 589.043L116.174 589.124L118.723 589.159L121.258 589.15L123.778 589.095L126.284 588.993L128.774 588.845L131.25 588.649L133.71 588.405L136.155 588.113L138.584 587.772L140.997 587.382L143.395 586.942L145.777 586.453L148.143 585.913L150.493 585.324L152.828 584.684L155.146 583.994L157.448 583.254L159.734 582.463L162.004 581.622L164.258 580.731L166.496 579.79L168.719 578.798L170.925 577.757L173.116 576.667L175.291 575.528L177.451 574.34L179.595 573.104L181.724 571.82L183.838 570.488L185.938 569.11L188.022 567.686L190.092 566.216L192.148 564.701L194.189 563.141L196.217 561.539L198.231 559.893L200.232 558.206L202.22 556.478L204.195 554.71L206.157 552.902L208.107 551.056L210.046 549.173L211.973 547.254L213.889 545.3L215.794 543.311L217.688 541.29L219.573 539.237L221.447 537.154L223.313 535.041L225.169 532.9L227.017 530.732L228.857 528.539L230.689 526.321L232.514 524.081L234.332 521.819L236.143 519.537L237.949 517.236L239.749 514.918L241.544 512.584L243.334 510.235L245.12 507.873L246.903 505.5L248.682 503.117L250.459 500.725L252.233 498.326L254.005 495.922L255.777 493.513L257.547 491.102L259.317 488.689L261.087 486.277L262.858 483.867L264.63 481.461L266.404 479.059L268.179 476.664L269.957 474.277L271.738 471.899L273.523 469.532L275.311 467.177L277.104 464.837L278.902 462.511L280.705 460.203L282.514 457.912L284.329 455.641L286.15 453.391L287.979 451.163L289.816 448.959L291.66 446.78L293.512 444.627L295.374 442.502L297.244 440.405L299.125 438.339L301.015 436.303L302.915 434.3L304.826 432.331L306.748 430.396L308.681 428.497L310.626 426.635L312.584 424.81L314.553 423.025L316.535 421.279L318.53 419.573L320.538 417.91L322.56 416.288L324.596 414.71L326.645 413.175L328.709 411.685L330.787 410.241L332.879 408.842L334.987 407.49L337.109 406.185L339.247 404.928L341.4 403.719L343.568 402.558L345.752 401.446L347.952 400.383L350.167 399.37L352.398 398.407L354.645 397.494L356.909 396.631L359.188 395.818L361.483 395.055L363.794 394.343L366.121 393.681L368.464 393.07L370.823 392.509L373.198 391.997L375.589 391.536L377.996 391.124L380.418 390.761L382.856 390.448L385.309 390.183L387.778 389.966L390.262 389.796L392.761 389.674L395.275 389.599L397.803 389.57L400.346 389.586L402.903 389.646L405.474 389.751L408.059 389.899L410.657 390.09L413.269 390.322L415.893 390.595L418.531 390.908L421.18 391.26L423.842 391.649L426.516 392.076L429.201 392.538L431.897 393.036L434.603 393.567L437.32 394.13L440.047 394.725L442.784 395.351L445.53 396.005L448.285 396.687L451.048 397.395L453.819 398.129L456.598 398.886L459.384 399.666L462.177 400.467L464.976 401.288L467.78 402.128L470.591 402.984L473.406 403.855L476.225 404.741L479.049 405.64L481.876 406.549L484.706 407.468L487.539 408.396L490.374 409.33L493.211 410.269L496.049 411.212L498.887 412.157L501.726 413.103L504.564 414.048L507.402 414.99L510.238 415.929L513.073 416.862L515.906 417.789L518.736 418.707L521.562 419.615L524.386 420.512L527.205 421.396L530.019 422.266L532.829 423.121L535.633 423.958L538.431 424.776L541.223 425.575L544.008 426.352L546.786 427.107L549.556 427.837L552.318 428.543L555.072 429.221L557.817 429.872L560.552 430.494L563.278 431.085L565.994 431.645L568.7 432.172L571.394 432.665L574.078 433.123L576.75 433.545L579.41 433.931L582.059 434.278L584.694 434.586L587.317 434.854L589.927 435.081L592.524 435.266L595.107 435.409L597.677 435.509L600.232 435.564L602.773 435.575L605.3 435.54L607.812 435.459L610.309 435.331L612.791 435.156L615.258 434.934L617.709 434.663L620.145 434.343L622.566 433.974L624.971 433.557L627.36 433.089L629.733 432.572L632.09 432.004L634.431 431.387L636.756 430.719L639.065 430.001L641.359 429.232L643.636 428.413L645.897 427.544L648.142 426.625L650.371 425.655L652.585 424.636L654.782 423.568L656.964 422.45L659.131 421.283L661.282 420.068L663.418 418.805L665.538 417.494L667.644 416.137L669.735 414.732L671.811 413.282L673.873 411.787L675.921 410.247L677.955 408.664L679.975 407.037L681.981 405.368L683.975 403.658L685.955 401.907L687.923 400.116L689.879 398.287L691.823 396.421L693.755 394.517L695.675 392.578L697.585 390.605L699.484 388.598L701.373 386.558L703.252 384.488L705.121 382.388L706.982 380.259L708.833 378.103L710.677 375.921L712.512 373.714L714.34 371.483L716.161 369.231L717.975 366.957L719.783 364.665L721.586 362.354L723.383 360.027L725.175 357.684L726.963 355.328L728.747 352.96L730.528 350.581L732.305 348.192L734.081 345.796L735.854 343.394L737.626 340.987L739.396 338.577L741.166 336.165L742.937 333.752L744.707 331.341L746.478 328.933L748.251 326.529L750.026 324.131L751.803 321.74L753.582 319.358L755.365 316.986L757.152 314.626L758.943 312.279L760.738 309.947L762.539 307.63L764.345 305.332L766.157 303.052L767.976 300.793L769.802 298.555L771.635 296.34L773.476 294.15L775.324 291.985L777.182 289.848L779.048 287.738L780.924 285.658L782.81 283.609L784.706 281.592L786.612 279.608L788.529 277.657L790.457 275.743L792.397 273.864L794.349 272.023L796.313 270.22L798.29 268.456L800.279 266.733L802.281 265.051L804.297 263.411L806.327 261.813L808.37 260.259L810.427 258.75L812.499 257.285L814.585 255.866L816.686 254.494L818.802 253.168L820.933 251.89L823.079 250.659L825.241 249.477L827.418 248.344L829.61 247.26L831.819 246.225L834.043 245.239L836.283 244.304L838.539 243.419L840.811 242.584L843.099 241.799L845.403 241.065L847.723 240.381L850.06 239.748L852.412 239.164L854.78 238.631L857.164 238.148L859.563 237.714L861.979 237.33L864.41 236.995L866.856 236.708L869.318 236.47L871.796 236.28L874.288 236.137L876.795 236.042L879.317 235.992L881.854 235.988L884.405 236.029L886.97 236.115L889.548 236.244L892.141 236.416L894.747 236.63L897.366 236.885L899.997 237.181L902.642 237.515L905.298 237.889L907.967 238.299L910.646 238.746L913.338 239.228L916.04 239.744L918.752 240.294L921.475 240.875L924.208 241.487L926.949 242.129L929.7 242.799L932.46 243.496L935.228 244.219L938.003 244.966L940.786 245.736L943.576 246.528L946.372 247.34L949.174 248.172L951.982 249.021L954.795 249.886L957.613 250.765L960.435 251.658L963.26 252.563L966.089 253.478L968.921 254.402L971.755 255.334L974.591 256.271L977.429 257.212L980.267 258.157L983.106 259.102L985.944 260.048L988.782 260.992L991.619 261.932L994.455 262.868L997.288 263.798L1000.12 264.72L1002.95 265.633L1005.77 266.535L1008.59 267.425L1011.41 268.301L1014.22 269.162L1017.03 270.007L1019.83 270.834L1022.62 271.641L1025.41 272.428L1028.19 273.193L1030.97 273.934L1033.73 274.651L1036.49 275.341L1039.24 276.005L1041.98 276.639L1044.71 277.244L1047.43 277.818L1050.14 278.359L1052.84 278.868L1055.53 279.341L1058.2 279.779L1060.87 280.181L1063.52 280.545L1066.16 280.87L1068.79 281.156L1071.41 281.401L1074.01 281.605L1076.6 281.767L1079.18 281.886L1081.74 281.96L1084.29 281.991L1086.82 281.976L1089.34 281.915L1091.84 281.808L1094.33 281.654L1096.8 281.452L1099.26 281.203L1101.7 280.905L1104.13 280.558L1106.54 280.161L1108.94 279.716L1111.32 279.22L1113.68 278.675L1116.03 278.08L1118.36 277.434L1120.68 276.738L1122.98 275.991L1125.26 275.194L1127.53 274.347L1129.78 273.45L1132.02 272.503L1134.24 271.505L1136.45 270.459L1138.63 269.362L1140.81 268.217L1142.97 267.023L1145.11 265.781L1147.24 264.491L1149.35 263.154L1151.45 261.77L1153.53 260.34L1155.6 258.865L1157.65 257.345L1159.69 255.78L1161.72 254.172L1163.73 252.522L1165.73 250.83L1167.71 249.096L1169.69 247.323L1171.65 245.511L1173.6 243.661L1175.53 241.773L1177.46 239.85L1179.37 237.891L1181.28 235.899L1183.17 233.874L1185.05 231.817L1186.93 229.73L1188.79 227.614L1190.65 225.469L1192.49 223.298L1194.33 221.102L1196.16 218.882L1197.99 216.639L1199.81 214.374L1201.62 212.09L1203.42 209.787L1205.22 207.466L1207.02 205.131L1208.8 202.78L1210.59 200.417L1212.37 198.043L1214.15 195.658L1215.93 193.265L1217.7 190.866L1219.47 188.461L1221.25 186.051L1223.02 183.64L1224.79 181.228L1226.56 178.816L1228.33 176.406L1230.1 174L1231.87 171.599L1233.65 169.205L1235.43 166.819L1237.21 164.442L1238.99 162.077L1240.78 159.724L1242.58 157.385L1244.37 155.061L1246.18 152.755L1247.99 150.467L1249.8 148.198L1251.63 145.951L1253.46 143.726L1255.29 141.525L1257.14 139.349L1258.99 137.199L1260.85 135.077L1262.73 132.984L1264.61 130.921L1266.5 128.89L1268.4 126.891L1270.31 124.925L1272.24 122.995L1274.17 121.1L1276.12 119.243L1278.08 117.423L1280.05 115.642L1282.03 113.901L1284.03 112.2L1286.04 110.541L1288.06 108.925L1290.1 107.352L1292.15 105.823L1294.21 104.338L1296.29 102.899L1298.39 101.506L1300.5 100.16L1302.62 98.8609L1304.76 97.6093L1306.92 96.4059L1309.09 95.2511L1311.27 94.1452L1313.47 93.0885L1315.69 92.0815L1317.92 91.1242L1320.17 90.217L1322.44 89.36L1324.72 88.5532L1327.02 87.7968L1329.33 87.0907L1331.66 86.435L1334 85.8296L1336.36 85.2744L1338.74 84.7691L1341.13 84.3136L1343.54 83.9077L1345.97 83.551L1348.41 83.2433L1350.86 82.9841L1353.33 82.7729L1355.82 82.6095L1358.32 82.4931L1360.83 82.4233L1363.36 82.3995L1365.91 82.421L1368.47 82.4871L1371.04 82.5972L1373.63 82.7504L1376.23 82.946L1378.84 83.1832L1381.47 83.4611L1384.11 83.7786L1386.76 84.135L1389.42 84.5292L1392.09 84.9602L1394.78 85.4271L1397.48 85.9285L1400.19 86.4636L1402.9 87.0311L1405.63 87.6298L1408.37 88.2586L1411.12 88.9163L1413.87 89.6015L1416.64 90.3131L1419.41 91.0496L1422.19 91.8099L1424.98 92.5924L1427.77 93.396L1430.57 94.2192L1433.37 95.0605L1436.19 95.9187L1439 96.7921L1441.82 97.6795L1444.65 98.5793L1447.47 99.4901L1450.3 100.41L1453.14 101.339L1455.97 102.273L1458.81 103.213L1461.65 104.157L1464.49 105.102" stroke="url(#paint0_linear)" stroke-width="4"/>
<defs>
<linearGradient id="paint0_linear" x1="-328.394" y1="335.287" x2="860.894" y2="1360.84" gradientUnits="userSpaceOnUse">
<stop stop-color="#B294FC"/>
<stop offset="1" stop-color="#86BDFE"/>
</linearGradient>
</defs>
</svg>
