<svg width="106" height="223" viewBox="0 0 106 223" fill="none" xmlns="http://www.w3.org/2000/svg">
<path d="M85.8145 149.172H19.4414L26.1457 213.869C26.1457 213.869 44.2405 217.739 55.8347 217.739C64.9243 217.739 79.1101 213.869 79.1101 213.869L85.8145 149.172Z" fill="url(#paint0_linear)"/>
<circle r="33.1865" transform="matrix(-1 0 0 1 52.6279 33.1865)" fill="url(#paint1_linear)"/>
<path d="M105.258 129.394C105.258 100.328 81.6954 76.7646 52.6291 76.7646C23.5629 76.7646 -1.52588e-05 100.328 -1.52588e-05 129.394V152.661L9.37213 154.496C37.787 160.057 67.0082 160.081 95.4324 154.567L105.258 152.661V129.394Z" fill="url(#paint2_linear)"/>
<mask id="mask0" style="mask-type:alpha" maskUnits="userSpaceOnUse" x="0" y="76" width="106" height="83">
<path d="M105.258 129.556C105.258 100.49 81.6954 76.9268 52.6291 76.9268C23.5629 76.9268 -1.52588e-05 100.49 -1.52588e-05 129.556V152.824L9.37213 154.658C37.787 160.219 67.0082 160.243 95.4324 154.73L105.258 152.824V129.556Z" fill="url(#paint3_linear)"/>
</mask>
<g mask="url(#mask0)">
<circle cx="49.8709" cy="71.8436" r="30.4051" fill="#FFF9F9" fill-opacity="0.42"/>
<circle cx="49.8706" cy="58.5762" r="69.1026" fill="white" fill-opacity="0.15"/>
</g>
<path d="M26.2413 213.37C25.2351 206.997 30.1601 201.229 36.6122 201.229H68.8769C75.5462 201.229 80.5247 207.37 79.1507 213.896C78.1278 218.755 73.8407 222.236 68.8754 222.236H36.6133C31.4465 222.236 27.0472 218.474 26.2413 213.37Z" fill="#51409C"/>
<circle cx="52.3531" cy="157.06" r="22.4371" fill="#F4CD42"/>
<path d="M50.4684 146.461C50.8669 145.898 51.7022 145.898 52.1008 146.461L55.686 151.525C55.8128 151.704 55.9952 151.837 56.2049 151.902L62.1295 153.747C62.788 153.952 63.0462 154.746 62.6339 155.299L58.9251 160.274C58.7938 160.45 58.7242 160.665 58.7269 160.884L58.8033 167.089C58.8118 167.779 58.136 168.27 57.4826 168.048L51.6053 166.058C51.3973 165.988 51.1719 165.988 50.9639 166.058L45.0865 168.048C44.4332 168.27 43.7574 167.779 43.7659 167.089L43.8423 160.884C43.845 160.665 43.7753 160.45 43.644 160.274L39.9352 155.299C39.523 154.746 39.7811 153.952 40.4397 153.747L46.3643 151.902C46.5739 151.837 46.7563 151.704 46.8832 151.525L50.4684 146.461Z" fill="white"/>
<defs>
<linearGradient id="paint0_linear" x1="52.6279" y1="149.172" x2="52.6279" y2="217.739" gradientUnits="userSpaceOnUse">
<stop stop-color="#9E8DF1"/>
<stop offset="1" stop-color="#A393F2"/>
</linearGradient>
<linearGradient id="paint1_linear" x1="33.1865" y1="-1.23363e-06" x2="-8.20731" y2="90.8167" gradientUnits="userSpaceOnUse">
<stop stop-color="#BE6CFD"/>
<stop offset="1" stop-color="#7367FF"/>
</linearGradient>
<linearGradient id="paint2_linear" x1="40.9087" y1="59.079" x2="61.3631" y2="160.798" gradientUnits="userSpaceOnUse">
<stop stop-color="#7A72DE"/>
<stop offset="1" stop-color="#9583EF"/>
</linearGradient>
<linearGradient id="paint3_linear" x1="40.9087" y1="59.2411" x2="61.3631" y2="160.96" gradientUnits="userSpaceOnUse">
<stop stop-color="#3C39CF"/>
<stop offset="1" stop-color="#9583EF"/>
</linearGradient>
</defs>
</svg>
