<svg width="84" height="70" viewBox="0 0 84 70" fill="none" xmlns="http://www.w3.org/2000/svg">
<g filter="url(#filter0_d)">
<rect x="19" y="19" width="45.4194" height="32" rx="16" fill="#6610F2"/>
<rect x="17" y="17" width="49.4194" height="36" rx="18" stroke="white" stroke-width="4"/>
</g>
<path fill-rule="evenodd" clip-rule="evenodd" d="M38.1495 29.725C38.8637 30.2627 38.824 31.1064 38.0608 31.6096L32.092 35.5452L38.0608 39.4807C38.824 39.9839 38.8637 40.8277 38.1495 41.3653C37.4353 41.903 36.2377 41.9309 35.4746 41.4278L26.5527 35.5452L35.4746 29.6626C36.2377 29.1594 37.4353 29.1873 38.1495 29.725Z" fill="white"/>
<path fill-rule="evenodd" clip-rule="evenodd" d="M44.4863 29.725C43.7721 30.2627 43.8118 31.1064 44.5749 31.6096L50.5438 35.5452L44.5749 39.4807C43.8118 39.9839 43.7721 40.8277 44.4863 41.3653C45.2004 41.903 46.398 41.9309 47.1612 41.4278L56.083 35.5452L47.1612 29.6626C46.398 29.1594 45.2004 29.1873 44.4863 29.725Z" fill="white"/>
<defs>
<filter id="filter0_d" x="0" y="0" width="83.4194" height="70" filterUnits="userSpaceOnUse" color-interpolation-filters="sRGB">
<feFlood flood-opacity="0" result="BackgroundImageFix"/>
<feColorMatrix in="SourceAlpha" type="matrix" values="0 0 0 0 0 0 0 0 0 0 0 0 0 0 0 0 0 0 127 0" result="hardAlpha"/>
<feOffset/>
<feGaussianBlur stdDeviation="7.5"/>
<feColorMatrix type="matrix" values="0 0 0 0 0 0 0 0 0 0 0 0 0 0 0 0 0 0 0.2 0"/>
<feBlend mode="normal" in2="BackgroundImageFix" result="effect1_dropShadow"/>
<feBlend mode="normal" in="SourceGraphic" in2="effect1_dropShadow" result="shape"/>
</filter>
</defs>
</svg>
