<svg width="654" height="593" viewBox="0 0 654 593" fill="none" xmlns="http://www.w3.org/2000/svg">
<path d="M627.933 39.6717C596.363 75.7284 578.877 120.524 562.304 164.478C545.731 208.432 529.045 253.368 498.638 290.302C468.244 327.236 421.064 355.431 371.345 352.319C273.958 346.212 210.068 245.717 119.097 219.089C89.8163 210.514 55.5696 211.614 31.1541 228.987C-3.00509 253.286 -6.99512 302.68 12.3171 338.526C31.6294 374.372 68.5904 398.881 106.289 418.056C135.245 432.785 165.502 445.268 196.647 455.353C235.897 468.047 278.436 477.944 307.842 505.379C345.116 540.16 337.474 567.384 317.011 592.701H731.999V0H674.8C657.252 11.0323 641.354 24.3459 627.933 39.6717Z" fill="#F5F4FF"/>
</svg>
